<?xml version="1.0" encoding="UTF-8"?>
<svg xmlns="http://www.w3.org/2000/svg" xmlns:xlink="http://www.w3.org/1999/xlink" width="2100" height="2100" viewBox="0 0 2100 2100">

<path fill-rule="nonzero" fill="rgb(0%, 0%, 0%)" fill-opacity="1" d="M 1296.699219 375 C 1385.789062 375 1461.171875 450.378906 1461.171875 539.460938 L 1461.171875 1557.105469 C 1461.171875 1649.621094 1385.789062 1725 1296.699219 1725 L 803.300781 1725 C 714.214844 1725 638.832031 1649.621094 638.832031 1557.105469 L 638.832031 539.460938 C 638.832031 450.378906 714.214844 375 803.300781 375 Z M 1296.699219 440.101562 L 803.300781 440.101562 C 748.476562 440.101562 703.933594 484.640625 703.933594 539.460938 L 703.933594 1557.105469 C 703.933594 1615.355469 748.476562 1659.898438 803.300781 1659.898438 L 1296.699219 1659.898438 C 1351.519531 1659.898438 1396.070312 1615.355469 1396.070312 1557.105469 L 1396.070312 539.460938 C 1396.070312 484.640625 1351.519531 440.101562 1296.699219 440.101562 Z M 1296.699219 440.101562 "/>
<path fill-rule="nonzero" fill="rgb(0%, 0%, 0%)" fill-opacity="1" d="M 974.621094 1543.402344 C 930.078125 1546.832031 933.503906 1611.929688 974.621094 1608.503906 L 1121.949219 1608.503906 C 1169.929688 1611.933594 1169.929688 1543.402344 1121.949219 1543.402344 Z M 974.621094 1543.402344 "/>
<path fill-rule="nonzero" fill="rgb(0%, 0%, 0%)" fill-opacity="1" d="M 758.757812 1498.859375 L 1341.246094 1498.859375 L 1341.246094 580.582031 L 758.757812 580.582031 Z M 758.757812 1498.859375 "/>
<path fill-rule="nonzero" fill="rgb(0%, 0%, 0%)" fill-opacity="1" d="M 1002.03125 494.929688 C 978.046875 498.359375 978.046875 539.460938 1005.460938 536.039062 L 1094.550781 536.039062 C 1121.960938 536.039062 1121.960938 494.929688 1094.550781 494.929688 L 1005.460938 494.929688 C 1005.460938 494.929688 1005.460938 494.929688 1002.03125 494.929688 Z M 1002.03125 494.929688 "/>
</svg>
